<?xml version="1.0" standalone="no"?>
<!DOCTYPE svg PUBLIC "-//W3C//DTD SVG 20010904//EN"
 "http://www.w3.org/TR/2001/REC-SVG-20010904/DTD/svg10.dtd">
<svg version="1.0" xmlns="http://www.w3.org/2000/svg"
 width="300.000000pt" height="300.000000pt" viewBox="0 0 300.000000 300.000000"
 preserveAspectRatio="xMidYMid meet">
<metadata>
Created by potrace 1.10, written by Peter Selinger 2001-2011
</metadata>
<g transform="translate(0.000000,300.000000) scale(0.100000,-0.100000)"
fill="#000000" stroke="none">
<path d="M277 1949 c-41 -24 -47 -65 -47 -334 0 -272 6 -311 48 -334 12 -6 74
-11 142 -11 l122 0 -6 -37 c-13 -72 -13 -72 -69 -75 -48 -3 -52 -5 -52 -28 l0
-25 210 0 210 0 0 25 c0 23 -4 25 -51 28 l-52 3 -11 44 c-6 24 -11 49 -11 55
0 7 39 10 121 9 119 -1 121 -1 150 27 l29 28 0 284 c0 288 -3 311 -39 339 -21
16 -667 18 -694 2z m662 -48 c12 -8 15 -56 19 -255 l4 -246 -336 0 -336 0 0
243 c0 176 3 246 12 255 15 15 615 17 637 3z m31 -550 c0 -35 -49 -51 -152
-51 -120 0 -143 -13 -134 -74 3 -22 9 -51 12 -63 6 -22 4 -23 -71 -23 -69 0
-76 2 -70 18 3 9 9 37 12 62 8 69 -7 78 -145 82 -105 3 -115 5 -133 27 -10 12
-17 27 -14 31 3 5 160 9 350 10 339 1 345 0 345 -19z"/>
<path d="M642 1753 c-11 -32 -33 -98 -47 -147 -22 -72 -25 -90 -13 -97 7 -5
15 -9 18 -9 7 0 95 221 105 262 5 20 2 29 -13 37 -12 6 -23 11 -25 11 -2 0
-14 -26 -25 -57z"/>
<path d="M450 1708 c-41 -33 -75 -64 -75 -69 0 -4 33 -31 74 -59 58 -40 76
-48 87 -39 24 20 15 36 -38 69 -51 32 -52 33 -31 49 11 9 35 24 52 33 33 18
38 35 19 61 -12 14 -21 9 -88 -45z"/>
<path d="M735 1750 c-22 -24 -15 -33 45 -67 28 -15 50 -30 50 -33 0 -3 -25
-20 -55 -38 -59 -36 -63 -42 -40 -66 14 -14 23 -10 85 37 40 29 70 60 70 70 0
9 -4 17 -8 17 -4 0 -36 22 -69 49 -59 48 -62 49 -78 31z"/>
<path d="M2010 1947 c-24 -12 -25 -16 -28 -126 -3 -133 5 -151 70 -151 66 0
78 22 78 140 0 94 -2 103 -25 125 -27 28 -57 31 -95 12z m64 -53 c3 -9 6 -48
6 -89 0 -72 -15 -106 -40 -90 -11 7 -14 177 -3 188 11 12 31 7 37 -9z"/>
<path d="M2524 1951 c-2 -2 -4 -67 -4 -143 l0 -138 25 0 c24 0 25 3 25 55 0
31 4 55 10 55 12 0 14 -5 30 -67 10 -38 14 -43 39 -43 l29 0 -20 52 c-18 49
-18 55 -4 79 20 34 21 98 1 126 -11 16 -27 22 -71 25 -31 1 -58 1 -60 -1z m94
-81 c3 -24 -2 -38 -14 -47 -29 -21 -34 -16 -34 38 0 47 2 50 23 47 17 -2 23
-11 25 -38z"/>
<path d="M1100 1809 l0 -141 61 4 c83 6 89 15 89 144 0 95 -2 104 -22 118 -14
10 -44 16 -75 16 l-53 0 0 -141z m95 7 c0 -83 -1 -89 -22 -97 -23 -8 -23 -8
-23 92 0 98 0 100 23 97 21 -3 22 -7 22 -92z"/>
<path d="M1300 1810 l0 -140 65 0 c63 0 65 1 65 25 0 23 -4 25 -40 25 -39 0
-40 1 -40 34 0 32 3 35 33 38 24 2 32 8 32 23 0 17 -6 19 -32 17 -32 -3 -33
-2 -33 37 l0 40 35 -6 c33 -5 35 -4 35 21 0 25 -2 26 -60 26 l-60 0 0 -140z"/>
<path d="M1450 1943 c1 -5 13 -66 29 -138 27 -130 27 -130 56 -130 28 0 28 0
56 130 16 72 28 133 29 138 0 4 -11 7 -24 7 -27 0 -26 1 -47 -122 -6 -38 -12
-68 -14 -68 -2 0 -8 33 -15 73 -18 117 -18 117 -45 117 -14 0 -25 -3 -25 -7z"/>
<path d="M1660 1810 l0 -140 65 0 c63 0 65 1 65 25 0 23 -4 25 -40 25 -39 0
-40 1 -40 35 0 33 2 35 36 35 31 0 35 3 32 23 -2 18 -8 21 -35 19 -32 -3 -33
-2 -33 37 l0 40 35 -6 c33 -5 35 -4 35 21 0 25 -2 26 -60 26 l-60 0 0 -140z"/>
<path d="M1830 1810 l0 -140 60 0 c57 0 60 1 60 25 0 22 -4 25 -35 25 l-35 0
0 115 0 115 -25 0 -25 0 0 -140z"/>
<path d="M2170 1810 l0 -140 30 0 c29 0 30 0 23 45 -5 42 -4 45 16 45 25 0 62
17 73 34 4 6 8 35 8 64 0 72 -21 92 -95 92 l-55 0 0 -140z m88 91 c8 -5 12
-23 10 -47 -2 -32 -7 -40 -25 -42 -21 -3 -23 0 -23 47 0 51 9 61 38 42z"/>
<path d="M2357 1813 l2 -138 60 -3 c59 -3 61 -2 61 23 0 22 -4 25 -35 25 -33
0 -35 2 -35 35 0 32 2 35 30 35 26 0 30 4 30 26 0 23 -3 25 -30 19 -29 -6 -30
-6 -30 34 l0 40 35 -6 c33 -5 35 -4 35 21 0 25 -2 26 -62 26 l-63 0 2 -137z"/>
<path d="M1853 1584 c-39 -19 -63 -68 -63 -126 0 -59 26 -94 107 -142 63 -38
68 -44 71 -79 3 -32 -1 -39 -23 -49 -34 -15 -58 -1 -65 38 -3 15 -8 27 -12 26
-5 -1 -24 -2 -44 -2 l-37 0 6 -46 c7 -70 40 -97 119 -102 54 -3 68 0 98 20 43
29 64 85 54 143 -7 45 -50 91 -130 140 -37 23 -50 37 -52 58 -4 37 15 59 47
55 20 -2 28 -11 36 -35 8 -31 12 -33 52 -33 41 0 43 1 43 30 0 95 -111 151
-207 104z m11 -169 c9 -13 42 -41 74 -61 67 -43 81 -60 81 -94 0 -23 -1 -22
-19 11 -18 34 -78 89 -98 89 -17 0 -59 39 -65 60 -7 28 7 25 27 -5z m137 -248
c-30 -30 -35 -15 -9 25 20 30 23 32 26 15 2 -11 -6 -29 -17 -40z"/>
<path d="M1102 1348 l3 -243 40 0 40 0 5 140 c3 77 7 134 8 127 4 -28 97 -257
107 -265 5 -4 26 -6 45 -5 l35 3 3 243 2 242 -45 0 -45 0 0 -142 -1 -143 -33
90 c-77 209 -65 190 -119 193 l-47 3 2 -243z m65 190 c15 -20 53 -119 53 -138
0 -13 -6 -17 -20 -13 -16 4 -23 -1 -33 -26 -6 -17 -15 -31 -19 -31 -4 0 -8 50
-8 110 0 105 6 126 27 98z m181 -283 c0 -127 -16 -131 -62 -16 -30 74 -32 89
-11 71 13 -10 19 -10 35 5 11 10 20 25 21 34 0 12 3 10 9 -4 4 -12 8 -52 8
-90z"/>
<path d="M1486 1363 c-27 -126 -49 -235 -50 -243 -1 -11 11 -16 41 -18 45 -3
45 -3 55 63 3 17 11 20 57 20 l54 0 11 -40 c11 -38 14 -40 54 -43 23 -2 42 0
42 5 0 7 -83 407 -95 461 -5 20 -11 22 -63 22 l-58 0 -48 -227z m143 143 c16
-65 15 -71 -13 -53 -21 14 -26 14 -45 1 -20 -14 -21 -14 -21 15 0 50 17 81 44
81 20 0 25 -7 35 -44z m0 -228 c1 -9 -63 -11 -70 -3 -5 4 18 142 29 175 3 11
38 -132 41 -172z m56 -32 c4 -19 5 -42 3 -51 -2 -13 -8 -11 -30 12 -26 27 -27
30 -12 51 21 31 32 28 39 -12z m-141 2 c8 -13 4 -21 -15 -37 -33 -28 -38 -26
-34 9 7 53 26 64 49 28z"/>
<path d="M2122 1348 l3 -243 43 0 44 0 -1 240 0 240 -46 3 -45 3 2 -243z"/>
<path d="M2292 1348 l3 -243 40 0 40 0 3 134 c1 78 -1 138 -7 144 -6 6 -12 1
-17 -17 -13 -54 -24 -23 -24 73 0 140 26 149 69 23 25 -74 25 -76 6 -68 -22 8
-19 -17 15 -127 l31 -97 34 0 c33 0 34 1 59 78 42 130 47 155 30 148 -18 -7
-18 13 2 77 35 109 64 101 64 -17 0 -89 -7 -109 -26 -74 -11 20 -13 18 -19
-32 -3 -30 -5 -98 -3 -150 l3 -95 40 0 40 0 3 243 2 242 -53 0 -54 0 -43 -137
-44 -138 -45 138 -44 137 -54 0 -53 0 2 -242z m208 -38 c24 16 29 12 20 -17
-15 -50 -22 -63 -36 -63 -8 0 -14 1 -14 3 0 1 -7 23 -15 49 l-14 48 22 -15
c15 -9 27 -11 37 -5z"/>
</g>
</svg>
